<?xml version="1.0" encoding="UTF-8"?>
<svg width="11px" height="16px" viewBox="0 0 11 16" version="1.1" xmlns="http://www.w3.org/2000/svg" xmlns:xlink="http://www.w3.org/1999/xlink">
    <title>Group 4 Copy 11</title>
    <g id="Final-Deliverables" stroke="none" stroke-width="1" fill="none" fill-rule="evenodd">
        <g id="Group-4-Copy-11" fill="#697A8B">
            <path d="M2,0 L9,0 L9,1 L11,1 L11,2 L0,2 L0,1 L2,1 L2,0 Z" id="Combined-Shape"></path>
            <path d="M0,16 L11,16 L11,3 L0,3 L0,16 Z M2,13 L3,13 L3,6 L2,6 L2,13 Z M5,13 L6,13 L6,6 L5,6 L5,13 Z M8,13 L9,13 L9,6 L8,6 L8,13 Z" id="Fill-3"></path>
        </g>
    </g>
</svg>