<?xml version="1.0" encoding="UTF-8"?>
<svg width="21px" height="23px" viewBox="0 0 21 23" version="1.1" xmlns="http://www.w3.org/2000/svg" xmlns:xlink="http://www.w3.org/1999/xlink">
    <title>Group 4 Copy 3</title>
    <g id="Final-Deliverables" stroke="none" stroke-width="1" fill="none" fill-rule="evenodd">
        <g id="Group-4-Copy-3" transform="translate(0.000000, 1.332108)" fill="#687A8C" fill-rule="nonzero">
            <path d="M16.7138244,3.05873252 L17.2861756,4.97508691 L11.5941581,6.67510279 C10.0510732,7.13597082 8.88904188,8.40058937 8.55255448,9.96372184 L8.538,10.0367325 L8.55255448,10.1119204 C8.873747,11.6040014 9.94713965,12.8240893 11.3861411,13.3327593 L11.5941581,13.4005394 L17.2861756,15.1005553 L16.7138244,17.0169097 L11.0218069,15.3168938 L10.7812426,15.2398669 C8.87450129,14.5877352 7.40013776,13.0802327 6.77691543,11.1933529 L6.77691543,11.1933529 L6.735,11.0596422 L-7.10542736e-14,11.0587325 L-7.10542736e-14,9.05873252 L1.999,9.05773252 L2,9.01690971 L6.735,9.016 L6.77691543,8.88228933 C7.40013776,6.99540956 8.87450129,5.487907 10.7812426,4.83577537 L11.0218069,4.7587484 L16.7138244,3.05873252 Z" id="Combined-Shape"></path>
            <path d="M14.6185191,0.292893219 C14.979003,-0.0675907428 15.5462341,-0.0953202783 15.9385253,0.209704612 L16.0327326,0.292893219 L19.0327326,3.29289322 C19.3932166,3.65337718 19.4209461,4.22060824 19.1159212,4.61289944 L19.0327326,4.70710678 L16.0327326,7.70710678 C15.6422083,8.09763107 15.0090434,8.09763107 14.6185191,7.70710678 C14.2580351,7.34662282 14.2303056,6.77939176 14.5353305,6.38710056 L14.6185191,6.29289322 L16.911,4 L14.6185191,1.70710678 C14.2580351,1.34662282 14.2303056,0.779391764 14.5353305,0.387100557 L14.6185191,0.292893219 Z" id="Path-4-Copy" transform="translate(16.825626, 4.000000) scale(1, -1) rotate(20.000000) translate(-16.825626, -4.000000) "></path>
            <path d="M14.6185191,12.2928932 C14.979003,11.9324093 15.5462341,11.9046797 15.9385253,12.2097046 L16.0327326,12.2928932 L19.0327326,15.2928932 C19.3932166,15.6533772 19.4209461,16.2206082 19.1159212,16.6128994 L19.0327326,16.7071068 L16.0327326,19.7071068 C15.6422083,20.0976311 15.0090434,20.0976311 14.6185191,19.7071068 C14.2580351,19.3466228 14.2303056,18.7793918 14.5353305,18.3871006 L14.6185191,18.2928932 L16.911,16 L14.6185191,13.7071068 C14.2580351,13.3466228 14.2303056,12.7793918 14.5353305,12.3871006 L14.6185191,12.2928932 Z" id="Path-4-Copy-2" transform="translate(16.825626, 16.000000) rotate(20.000000) translate(-16.825626, -16.000000) "></path>
        </g>
    </g>
</svg>